<svg xmlns="http://www.w3.org/2000/svg" viewBox="0 0 512 512" width="512" height="512">
  <defs>
    <radialGradient id="bg" cx="50%" cy="45%" r="80%">
      <stop offset="0%" stop-color="#3a344d"/>
      <stop offset="100%" stop-color="#241f31"/>
    </radialGradient>
    <filter id="glow" x="-40%" y="-40%" width="180%" height="180%">
      <feGaussianBlur stdDeviation="3.5" result="blur"/>
      <feMerge>
        <feMergeNode in="blur"/>
        <feMergeNode in="SourceGraphic"/>
      </feMerge>
    </filter>
  </defs>
  <rect width="512" height="512" fill="url(#bg)"/>
  <g filter="url(#glow)" fill="none" stroke="#caa7ef" stroke-width="3" opacity="0.8">
    <path d="M0 0H512M0 128H512M0 256H512M0 384H512M0 512H512"/>
    <path d="M0 0V512M128 0V512M256 0V512M384 0V512M512 0V512"/>
    <path d="M0 0L128 128M128 0L256 128M256 0L384 128M384 0L512 128M0 128L128 256M128 128L256 256M256 128L384 256M384 128L512 256M0 256L128 384M128 256L256 384M256 256L384 384M384 256L512 384M0 384L128 512M128 384L256 512M256 384L384 512M384 384L512 512" opacity="0.35"/>
  </g>
  <circle cx="128" cy="96" r="14" fill="#d9baf7" filter="url(#glow)"/>
  <line x1="352" y1="320" x2="512" y2="320" stroke="#caa7ef" stroke-width="3" opacity="0.75" filter="url(#glow)"/>
  <circle cx="352" cy="320" r="16" fill="#d9baf7" filter="url(#glow)"/>
  <g fill="#ffffff" font-family="system-ui, -apple-system, Segoe UI, Arial, sans-serif" font-weight="800">
    <text x="76" y="182" font-size="98">A</text>
    <text x="360" y="402" font-size="98">B</text>
  </g>
</svg>